# xmcd
#
# Track frame offsets: 
#        150
#        12613
#        25806
#        42454
#        56756
#        72518
#        86989
#        108319
#        123563
#        139108
#        154533
#        173730
#        185625
#        201395
#        215532
#        231037
#        244643
#        260668
#
# Disc length: 3653 seconds
#
# Revision: 0
# Processed by: cddbd v1.5.2PL0 Copyright (c) Steve Scherf et al.
# Submitted via: ExactAudioCopy v1.1
#
DISCID=0f0e4312
DTITLE=Various Artist - Viva Vlaanderen Presenteert Radio 2 Zomerhit 2017 - C
DTITLE=D 1
DYEAR=2017
DGENRE=Pop-Folk
TTITLE0=Niels and Wiels - Skwon Meiske
TTITLE1=Blanche - City Lights
TTITLE2=Milo Meskens - New Beginning
TTITLE3=The Dinky Toys - The Sweetest Hangover
TTITLE4=Laura Tesoro - Higher
TTITLE5=Van Echelpoel - Waddistjom
TTITLE6=Delv!s - Sunday Interlude
TTITLE7=Natalia - You've Got A Friend
TTITLE8=Slongs Dievanongs - Schoene Joenge
TTITLE9=K3 - Pina Colada
TTITLE10=Coely - Celebrate
TTITLE11=Lost Frequencies Feat. Axel Ehnström - All Or Nothing
TTITLE12=Sylver - Turn Your Love Around
TTITLE13=De Geest - KwamZagOverwon
TTITLE14=Metejoor Feat. Daniel Lopez - Ik Hou Van Jou
TTITLE15=Isabelle A - En Dans
TTITLE16=Udo - Zomer In Je Hart
TTITLE17=Wim Soutaer - Nummer 1
EXTD=
EXTT0=
EXTT1=
EXTT2=
EXTT3=
EXTT4=
EXTT5=
EXTT6=
EXTT7=
EXTT8=
EXTT9=
EXTT10=
EXTT11=
EXTT12=
EXTT13=
EXTT14=
EXTT15=
EXTT16=
EXTT17=
PLAYORDER=
